<?xml version="1.0" standalone="no"?>
<!DOCTYPE svg PUBLIC "-//W3C//DTD SVG 20010904//EN"
 "http://www.w3.org/TR/2001/REC-SVG-20010904/DTD/svg10.dtd">
<svg version="1.0" xmlns="http://www.w3.org/2000/svg"
 width="390.000000pt" height="390.000000pt" viewBox="0 0 390.000000 390.000000"
 preserveAspectRatio="xMidYMid meet">
<metadata>
Created by potrace 1.14, written by Peter Selinger 2001-2017
</metadata>
<g transform="translate(0.000000,390.000000) scale(0.100000,-0.100000)"
fill="#000000" stroke="none">
<path d="M731 3813 c21 -63 24 -125 6 -166 -7 -15 -46 -62 -88 -105 -84 -85
-121 -138 -139 -199 -11 -35 -10 -44 11 -84 20 -40 28 -67 45 -152 6 -32 11
-32 -109 -5 -100 22 -163 127 -158 265 1 25 -2 31 -14 27 -14 -6 -25 -34 -43
-119 -22 -106 28 -258 99 -295 11 -6 59 -13 106 -16 47 -2 88 -5 90 -8 14 -13
13 -159 0 -271 -9 -72 -19 -155 -22 -185 -3 -30 -8 -66 -10 -80 -2 -14 -7 -45
-11 -70 -3 -25 -6 -45 -7 -45 -1 0 -20 -9 -41 -20 -47 -24 -74 -58 -88 -111
-30 -114 -14 -210 47 -272 39 -41 39 -36 20 -237 -11 -113 -14 -135 -18 -143
-3 -4 -8 -34 -11 -67 -6 -58 -9 -80 -21 -135 -3 -14 -7 -36 -10 -50 -3 -14 -9
-47 -15 -75 -10 -51 -20 -176 -25 -300 -1 -38 -12 -137 -23 -220 -12 -82 -24
-184 -28 -225 -3 -41 -9 -102 -14 -134 -4 -33 -4 -71 0 -85 12 -48 92 -65 104
-23 2 9 8 69 11 133 4 64 8 136 10 160 6 71 16 181 20 219 2 19 7 68 10 109 3
41 9 79 11 83 3 5 8 50 10 101 4 109 17 176 50 275 17 49 26 102 29 165 5 100
14 203 20 227 3 8 7 35 10 60 3 29 13 51 27 63 21 18 23 18 35 1 7 -10 33 -39
58 -66 44 -47 55 -68 35 -68 -9 0 -24 -30 -50 -97 -13 -33 -6 -58 12 -47 7 4
8 2 4 -4 -4 -7 -3 -12 3 -12 5 0 10 -8 10 -17 1 -44 5 -58 14 -65 6 -3 12 -28
14 -55 8 -95 57 -248 73 -224 3 6 33 -36 65 -94 32 -58 62 -105 66 -105 3 0
12 6 18 14 10 12 19 12 59 -1 26 -8 52 -15 57 -17 6 -1 15 -4 20 -7 6 -4 28
-12 50 -19 81 -26 175 -73 175 -88 0 -8 -13 -36 -28 -61 -44 -71 -55 -113 -47
-184 8 -78 23 -137 34 -137 5 0 12 -12 15 -26 4 -16 17 -29 37 -36 16 -6 37
-24 45 -41 12 -21 18 -26 24 -17 11 18 38 5 52 -25 17 -38 -1 -49 -85 -51 -39
0 -88 -4 -107 -8 -26 -5 -45 -2 -75 14 -21 11 -50 20 -62 20 -65 0 -134 -61
-114 -99 13 -24 46 -30 151 -27 47 1 123 -4 170 -12 47 -7 96 -14 110 -16 29
-3 80 12 80 24 0 5 17 14 38 21 20 6 44 19 52 28 25 27 60 104 60 131 0 19 19
41 71 85 39 33 77 66 85 74 16 15 43 13 159 -13 39 -9 111 -19 161 -22 50 -3
107 -11 125 -17 68 -25 180 -91 205 -121 52 -65 72 -83 95 -89 13 -4 29 -10
35 -14 20 -15 54 -81 54 -106 0 -26 22 -56 43 -58 7 0 21 -3 32 -5 37 -9 533
-6 547 2 15 9 -17 31 -72 49 -36 12 -90 19 -160 20 -115 3 -175 20 -222 63
-33 31 -36 57 -7 73 12 6 38 27 58 46 20 19 46 44 59 56 12 12 22 31 23 42 1
36 10 80 17 85 31 23 34 40 12 75 -12 19 -18 39 -15 45 4 6 -5 20 -20 32 -14
11 -25 27 -23 36 2 9 -6 25 -17 37 -11 12 -27 32 -35 45 -8 12 -25 34 -37 48
-25 27 -29 42 -12 42 6 0 7 5 2 13 -4 6 -9 53 -10 102 -1 80 3 103 37 205 21
63 41 135 46 160 4 25 9 48 10 53 1 4 2 24 3 45 l2 37 21 -25 21 -25 -6 48
c-4 31 -3 46 3 42 13 -8 13 5 0 25 -14 23 9 30 53 14 47 -17 50 -17 42 -4 -3
6 0 10 7 11 41 3 90 1 94 -4 3 -3 19 -1 35 5 24 8 39 5 95 -21 98 -46 158 -41
234 19 23 18 50 30 68 30 40 0 82 35 82 68 0 15 7 36 15 46 8 11 12 29 9 42
-3 12 -1 25 5 28 16 10 14 59 -3 82 -11 15 -28 19 -75 21 -75 2 -106 -13 -170
-78 -68 -69 -92 -72 -166 -16 -33 24 -82 65 -110 91 -27 25 -53 46 -58 46 -16
0 -177 83 -177 92 0 5 12 13 27 19 l26 10 -24 16 c-13 9 -25 17 -27 18 -2 2
11 26 28 54 31 53 70 157 70 186 0 33 18 4 39 -64 38 -121 50 -105 47 62 -1
63 2 113 6 111 12 -8 10 10 -6 42 -55 116 -56 121 -12 104 15 -5 42 -10 59 -9
18 0 25 3 17 6 -24 10 -31 27 -12 35 14 5 13 7 -5 7 -27 1 -75 61 -77 96 0 14
-5 25 -11 25 -5 1 -25 24 -43 53 -18 29 -48 62 -66 74 -18 11 -41 38 -51 60
-10 21 -26 49 -36 62 -26 32 -25 55 0 41 21 -11 79 8 100 33 10 13 7 13 -25 2
-21 -7 -45 -11 -53 -10 -9 2 -19 4 -23 4 -21 2 -4 18 32 29 38 12 80 39 80 53
0 4 -19 5 -42 2 -55 -5 -64 2 -89 66 l-20 53 33 -8 c43 -9 58 -9 90 0 31 9 28
26 -3 26 -39 0 -114 47 -206 127 l-22 20 28 21 c16 11 31 30 34 42 5 20 3 21
-37 15 -31 -5 -53 -2 -76 10 -66 34 -147 56 -227 62 -61 4 -80 9 -76 19 3 7
13 16 24 19 10 4 19 13 19 21 0 8 4 13 9 10 7 -5 21 14 21 29 0 4 -94 -29
-100 -35 -3 -3 -16 -7 -30 -8 -19 -3 -22 -1 -13 10 5 7 13 27 17 43 6 28 5 27
-19 -11 -42 -70 -84 -72 -47 -3 30 56 28 70 -4 24 -31 -46 -57 -69 -109 -94
l-40 -20 -53 26 c-29 14 -85 32 -125 38 -86 15 -277 20 -277 7 0 -17 27 -33
66 -39 33 -5 35 -8 20 -19 -11 -7 -36 -11 -64 -9 -75 7 -82 9 -171 46 -24 11
-46 17 -48 15 -9 -9 30 -56 63 -77 19 -11 34 -23 34 -25 0 -3 -4 -2 -10 1 -5
3 -10 2 -10 -3 0 -6 -22 -3 -51 5 -28 8 -53 12 -56 9 -3 -3 4 -20 15 -39 l21
-33 -66 -35 c-42 -22 -96 -63 -149 -116 -69 -68 -90 -84 -124 -89 -22 -4 -40
-10 -40 -14 0 -9 46 -28 78 -32 l24 -3 -21 -24 c-31 -35 -70 -119 -79 -172 -7
-37 -5 -54 9 -83 16 -34 16 -40 -5 -37 -25 5 -328 2 -333 -3 -3 -3 68 -6 158
-6 90 -1 175 -2 188 -3 31 -3 39 -23 12 -32 -10 -3 -25 -13 -33 -22 -11 -14
-11 -16 2 -8 24 15 -33 -51 -62 -71 -32 -22 -82 -83 -74 -91 3 -3 17 6 30 20
32 35 37 34 25 -3 -6 -16 -14 -30 -18 -30 -4 0 -8 -15 -9 -33 -1 -19 -7 -49
-12 -68 -12 -40 -13 -102 -2 -95 13 8 49 -28 60 -61 9 -27 8 -36 -11 -60 -12
-15 -16 -23 -8 -19 9 6 12 4 9 -5 -2 -8 -14 -18 -26 -24 -22 -10 -30 -25 -12
-25 16 0 0 -27 -25 -40 -13 -7 -22 -16 -20 -21 3 -4 -8 -19 -25 -32 -16 -14
-30 -30 -30 -36 0 -16 -32 -29 -60 -24 -28 4 -71 30 -68 41 4 13 -14 86 -27
112 -7 14 -15 47 -18 74 -4 32 -15 58 -31 75 -22 24 -23 30 -15 86 5 33 11 89
14 125 11 133 14 166 25 218 7 28 15 52 20 52 4 0 6 8 3 18 -2 10 12 101 33
203 36 179 38 185 80 239 56 72 84 134 84 192 0 94 -75 282 -143 356 -33 35
-37 26 -16 -35z"/>
<path d="M3515 2924 c-69 -26 -226 -62 -325 -75 -52 -7 -99 -16 -104 -20 -19
-16 232 25 341 57 82 24 157 52 138 52 -5 1 -28 -6 -50 -14z"/>
<path d="M2994 2819 c-4 -7 68 0 76 8 2 2 -13 3 -34 1 -20 -1 -39 -5 -42 -9z"/>
<path d="M3147 2759 c7 -7 15 -10 18 -7 3 3 -2 9 -12 12 -14 6 -15 5 -6 -5z"/>
<path d="M3180 2756 c0 -2 7 -6 15 -10 8 -3 15 -1 15 4 0 6 -7 10 -15 10 -8 0
-15 -2 -15 -4z"/>
<path d="M3256 2741 c10 -10 72 -26 63 -17 -4 4 -21 11 -39 16 -19 5 -29 6
-24 1z"/>
<path d="M3337 2719 c7 -7 15 -10 18 -7 3 3 -2 9 -12 12 -14 6 -15 5 -6 -5z"/>
<path d="M3150 2696 c0 -2 7 -7 16 -10 8 -3 12 -2 9 4 -6 10 -25 14 -25 6z"/>
<path d="M3220 2680 c8 -5 24 -10 34 -10 26 0 18 6 -19 14 -22 5 -26 4 -15 -4z"/>
<path d="M885 2660 c-22 -10 -34 -19 -27 -19 14 -1 72 27 72 34 0 6 3 7 -45
-15z"/>
<path d="M3345 2650 c11 -5 27 -9 35 -9 9 0 8 4 -5 9 -11 5 -27 9 -35 9 -9 0
-8 -4 5 -9z"/>
</g>
</svg>
